<svg width="20" height="20" viewBox="0 0 20 20" fill="none" xmlns="http://www.w3.org/2000/svg">
<path d="M9.99996 18.3333C8.86107 18.3333 7.78468 18.1144 6.77079 17.6767C5.7569 17.2394 4.87163 16.6422 4.11496 15.885C3.35774 15.1283 2.76051 14.2431 2.32329 13.2292C1.88551 12.2153 1.66663 11.1389 1.66663 10C1.66663 8.84722 1.88551 7.7675 2.32329 6.76083C2.76051 5.75361 3.35774 4.87167 4.11496 4.115C4.87163 3.35778 5.7569 2.76028 6.77079 2.3225C7.78468 1.88528 8.86107 1.66667 9.99996 1.66667C11.1527 1.66667 12.2325 1.88528 13.2391 2.3225C14.2463 2.76028 15.1283 3.35778 15.885 4.115C16.6422 4.87167 17.2394 5.75361 17.6766 6.76083C18.1144 7.7675 18.3333 8.84722 18.3333 10V11.2083C18.3333 12.0278 18.0522 12.7256 17.49 13.3017C16.9272 13.8783 16.2361 14.1667 15.4166 14.1667C14.9166 14.1667 14.4513 14.0556 14.0208 13.8333C13.5902 13.6111 13.2361 13.3194 12.9583 12.9583C12.5833 13.3333 12.1425 13.6286 11.6358 13.8442C11.1286 14.0592 10.5833 14.1667 9.99996 14.1667C8.84718 14.1667 7.86468 13.7603 7.05246 12.9475C6.23968 12.1353 5.83329 11.1528 5.83329 10C5.83329 8.84722 6.23968 7.86445 7.05246 7.05167C7.86468 6.23945 8.84718 5.83333 9.99996 5.83333C11.1527 5.83333 12.1355 6.23945 12.9483 7.05167C13.7605 7.86445 14.1666 8.84722 14.1666 10V11.2083C14.1666 11.6111 14.2916 11.9269 14.5416 12.1558C14.7916 12.3853 15.0833 12.5 15.4166 12.5C15.75 12.5 16.0416 12.3853 16.2916 12.1558C16.5416 11.9269 16.6666 11.6111 16.6666 11.2083V10C16.6666 8.18056 16.0102 6.61445 14.6975 5.30167C13.3852 3.98945 11.8194 3.33333 9.99996 3.33333C8.18051 3.33333 6.6144 3.98945 5.30163 5.30167C3.9894 6.61445 3.33329 8.18056 3.33329 10C3.33329 11.8194 3.9894 13.3853 5.30163 14.6975C6.6144 16.0103 8.18051 16.6667 9.99996 16.6667H14.1666V18.3333H9.99996ZM9.99996 12.5C10.6944 12.5 11.2847 12.2569 11.7708 11.7708C12.2569 11.2847 12.5 10.6944 12.5 10C12.5 9.30556 12.2569 8.71528 11.7708 8.22917C11.2847 7.74306 10.6944 7.5 9.99996 7.5C9.30551 7.5 8.71524 7.74306 8.22913 8.22917C7.74301 8.71528 7.49996 9.30556 7.49996 10C7.49996 10.6944 7.74301 11.2847 8.22913 11.7708C8.71524 12.2569 9.30551 12.5 9.99996 12.5Z" fill="#14C38E"/>
</svg>
