<svg width="35" height="35" viewBox="0 0 35 35" fill="none" xmlns="http://www.w3.org/2000/svg">
<g clip-path="url(#clip0_621_2)">
<path d="M19.3932 3.14402C18.852 2.72298 18.1858 2.49438 17.5001 2.49438C16.8143 2.49438 16.1482 2.72298 15.6069 3.14402L2.68158 13.1957C1.52225 14.1006 2.1605 15.9584 3.6297 15.9584H5.16675V28.2917C5.16675 29.1094 5.4916 29.8937 6.06983 30.4719C6.64807 31.0502 7.43233 31.375 8.25008 31.375H14.4167V22.125C14.4167 21.3073 14.7416 20.523 15.3198 19.9448C15.8981 19.3665 16.6823 19.0417 17.5001 19.0417C18.3178 19.0417 19.1021 19.3665 19.6803 19.9448C20.2586 20.523 20.5834 21.3073 20.5834 22.125V31.375H26.7501C27.5678 31.375 28.3521 31.0502 28.9303 30.4719C29.5086 29.8937 29.8334 29.1094 29.8334 28.2917V15.9584H31.3705C32.8381 15.9584 33.4795 14.1006 32.3186 13.1972L19.3932 3.14557V3.14402Z" fill="#14C38E"/>
</g>
<defs>
<clipPath id="clip0_621_2">
<rect width="35" height="35" fill="white"/>
</clipPath>
</defs>
</svg>
