<svg width="13" height="18" viewBox="0 0 13 18" fill="none" xmlns="http://www.w3.org/2000/svg">
<path d="M1.625 18C1.17812 18 0.795708 17.8323 0.47775 17.4969C0.15925 17.1609 0 16.7571 0 16.2857V7.71429C0 7.24286 0.15925 6.83914 0.47775 6.50314C0.795708 6.16771 1.17812 6 1.625 6H2.4375V4.28571C2.4375 3.1 2.83373 2.08914 3.62619 1.25314C4.4181 0.417714 5.37604 0 6.5 0C7.62396 0 8.58217 0.417714 9.37463 1.25314C10.1665 2.08914 10.5625 3.1 10.5625 4.28571V6H11.375C11.8219 6 12.2046 6.16771 12.5231 6.50314C12.841 6.83914 13 7.24286 13 7.71429V16.2857C13 16.7571 12.841 17.1609 12.5231 17.4969C12.2046 17.8323 11.8219 18 11.375 18H1.625ZM6.5 13.7143C6.94688 13.7143 7.32956 13.5466 7.64806 13.2111C7.96602 12.8751 8.125 12.4714 8.125 12C8.125 11.5286 7.96602 11.1249 7.64806 10.7889C7.32956 10.4534 6.94688 10.2857 6.5 10.2857C6.05312 10.2857 5.67071 10.4534 5.35275 10.7889C5.03425 11.1249 4.875 11.5286 4.875 12C4.875 12.4714 5.03425 12.8751 5.35275 13.2111C5.67071 13.5466 6.05312 13.7143 6.5 13.7143ZM4.0625 6H8.9375V4.28571C8.9375 3.57143 8.70052 2.96429 8.22656 2.46429C7.7526 1.96429 7.17708 1.71429 6.5 1.71429C5.82292 1.71429 5.2474 1.96429 4.77344 2.46429C4.29948 2.96429 4.0625 3.57143 4.0625 4.28571V6Z" fill="#14C38E"/>
</svg>
