<svg width="15" height="20" viewBox="0 0 15 20" fill="none" xmlns="http://www.w3.org/2000/svg">
<path d="M2.16071 19.8095C1.67128 19.8095 1.25244 19.6258 0.904203 19.2584C0.555369 18.8904 0.380953 18.4483 0.380953 17.932V8.54419C0.380953 8.02787 0.555369 7.5857 0.904203 7.2177C1.25244 6.85033 1.67128 6.66664 2.16071 6.66664H3.0506V4.78909C3.0506 3.49045 3.48456 2.38332 4.35249 1.4677C5.21983 0.552711 6.269 0.0952148 7.5 0.0952148C8.731 0.0952148 9.78047 0.552711 10.6484 1.4677C11.5157 2.38332 11.9494 3.49045 11.9494 4.78909V6.66664H12.8393C13.3287 6.66664 13.7479 6.85033 14.0967 7.2177C14.4449 7.5857 14.619 8.02787 14.619 8.54419V17.932C14.619 18.4483 14.4449 18.8904 14.0967 19.2584C13.7479 19.6258 13.3287 19.8095 12.8393 19.8095H2.16071ZM7.5 15.1156C7.98943 15.1156 8.40857 14.9319 8.7574 14.5646C9.10564 14.1966 9.27976 13.7544 9.27976 13.2381C9.27976 12.7217 9.10564 12.2796 8.7574 11.9116C8.40857 11.5442 7.98943 11.3605 7.5 11.3605C7.01057 11.3605 6.59173 11.5442 6.24349 11.9116C5.89466 12.2796 5.72024 12.7217 5.72024 13.2381C5.72024 13.7544 5.89466 14.1966 6.24349 14.5646C6.59173 14.9319 7.01057 15.1156 7.5 15.1156ZM4.83036 6.66664H10.1696V4.78909C10.1696 4.00678 9.91009 3.34181 9.391 2.79419C8.8719 2.24658 8.24157 1.97277 7.5 1.97277C6.75843 1.97277 6.1281 2.24658 5.609 2.79419C5.08991 3.34181 4.83036 4.00678 4.83036 4.78909V6.66664Z" fill="#14C38E"/>
</svg>
