<svg width="22" height="29" viewBox="0 0 22 29" fill="none" xmlns="http://www.w3.org/2000/svg">
<path d="M22 29H0V26.2381C0 24.4068 0.724328 22.6506 2.01364 21.3557C3.30295 20.0608 5.05164 19.3333 6.875 19.3333H15.125C16.9484 19.3333 18.697 20.0608 19.9864 21.3557C21.2757 22.6506 22 24.4068 22 26.2381V29ZM11 16.5714C9.91659 16.5714 8.8438 16.3571 7.84286 15.9407C6.84193 15.5243 5.93245 14.914 5.16637 14.1446C4.40029 13.3752 3.7926 12.4618 3.37799 11.4565C2.96339 10.4513 2.75 9.37381 2.75 8.28571C2.75 7.19762 2.96339 6.12018 3.37799 5.11491C3.7926 4.10964 4.40029 3.19623 5.16637 2.42683C5.93245 1.65743 6.84193 1.04711 7.84286 0.630712C8.8438 0.214316 9.91659 -1.62139e-08 11 0C13.188 3.27454e-08 15.2865 0.872957 16.8336 2.42683C18.3808 3.9807 19.25 6.08821 19.25 8.28571C19.25 10.4832 18.3808 12.5907 16.8336 14.1446C15.2865 15.6985 13.188 16.5714 11 16.5714V16.5714Z" fill="#14C38E"/>
</svg>
