<svg width="30" height="30" viewBox="0 0 30 30" fill="none" xmlns="http://www.w3.org/2000/svg">
<path d="M15 17.5V27.5H5C5 24.8478 6.05357 22.3043 7.92893 20.4289C9.8043 18.5536 12.3478 17.5 15 17.5V17.5ZM15 16.25C10.8562 16.25 7.5 12.8938 7.5 8.75C7.5 4.60625 10.8562 1.25 15 1.25C19.1438 1.25 22.5 4.60625 22.5 8.75C22.5 12.8938 19.1438 16.25 15 16.25ZM18.2438 23.515C18.0853 22.848 18.0853 22.1532 18.2438 21.4862L17.0037 20.77L18.2537 18.605L19.4938 19.3212C19.9915 18.8499 20.5931 18.5022 21.25 18.3063V16.875H23.75V18.3063C24.415 18.5038 25.015 18.8562 25.5063 19.3212L26.7462 18.605L27.9962 20.77L26.7563 21.4862C26.9145 22.1528 26.9145 22.8472 26.7563 23.5138L27.9962 24.23L26.7462 26.395L25.5063 25.6787C25.0085 26.1501 24.4069 26.4978 23.75 26.6937V28.125H21.25V26.6937C20.5931 26.4978 19.9915 26.1501 19.4938 25.6787L18.2537 26.395L17.0037 24.23L18.2438 23.515V23.515ZM22.5 21.25C22.1685 21.25 21.8505 21.3817 21.6161 21.6161C21.3817 21.8505 21.25 22.1685 21.25 22.5C21.25 22.8315 21.3817 23.1495 21.6161 23.3839C21.8505 23.6183 22.1685 23.75 22.5 23.75C22.8315 23.75 23.1495 23.6183 23.3839 23.3839C23.6183 23.1495 23.75 22.8315 23.75 22.5C23.75 22.1685 23.6183 21.8505 23.3839 21.6161C23.1495 21.3817 22.8315 21.25 22.5 21.25Z" fill="#14C38E"/>
</svg>
